<svg xmlns="http://www.w3.org/2000/svg" width="256" height="256" viewBox="0 0 256 256">
  <rect width="256" height="256" fill="#bbb5a9"/>
  <g opacity="0.2">
    <rect x="0" y="0" width="256" height="32" fill="#c5c0b4"/>
    <rect x="0" y="64" width="256" height="36" fill="#b2ac9f"/>
    <rect x="0" y="138" width="256" height="28" fill="#c2bcae"/>
    <rect x="0" y="204" width="256" height="30" fill="#b0aa9d"/>
  </g>
  <g fill="#938d82" opacity="0.22">
    <circle cx="18" cy="20" r="1.4"/>
    <circle cx="50" cy="44" r="1.2"/>
    <circle cx="90" cy="18" r="1.1"/>
    <circle cx="132" cy="34" r="1.3"/>
    <circle cx="176" cy="22" r="1.2"/>
    <circle cx="218" cy="40" r="1.4"/>
    <circle cx="30" cy="88" r="1.2"/>
    <circle cx="78" cy="116" r="1.1"/>
    <circle cx="146" cy="98" r="1.4"/>
    <circle cx="194" cy="122" r="1.2"/>
    <circle cx="234" cy="86" r="1.3"/>
    <circle cx="20" cy="166" r="1.2"/>
    <circle cx="64" cy="150" r="1.3"/>
    <circle cx="116" cy="182" r="1.1"/>
    <circle cx="164" cy="156" r="1.2"/>
    <circle cx="214" cy="178" r="1.4"/>
    <circle cx="36" cy="230" r="1.2"/>
    <circle cx="92" cy="214" r="1.3"/>
    <circle cx="154" cy="238" r="1.1"/>
    <circle cx="210" cy="220" r="1.2"/>
  </g>
  <g stroke="#d7d2c8" stroke-width="1" opacity="0.25">
    <path d="M0 54 C 28 50, 46 62, 74 58 S 128 48, 160 58 S 214 62, 256 50"/>
    <path d="M0 188 C 30 180, 52 196, 86 190 S 142 180, 178 188 S 224 198, 256 190"/>
  </g>
</svg>
