<svg xmlns="http://www.w3.org/2000/svg" width="256" height="256" viewBox="0 0 256 256">
  <rect width="256" height="256" fill="#7b7d78"/>
  <g opacity="0.45">
    <path d="M18 22 L30 12 L42 18 L40 34 L24 36 Z" fill="#b9bbb4"/>
    <path d="M74 28 L86 20 L98 28 L92 44 L76 42 Z" fill="#5f615d"/>
    <path d="M136 24 L148 16 L160 24 L154 38 L140 40 Z" fill="#a3a59e"/>
    <path d="M198 30 L214 18 L228 28 L220 44 L204 42 Z" fill="#d0d2cb"/>
    <path d="M30 88 L42 76 L56 82 L50 98 L36 100 Z" fill="#5f625f"/>
    <path d="M96 90 L108 80 L120 88 L116 102 L102 104 Z" fill="#b9bcb6"/>
    <path d="M164 84 L178 74 L190 84 L182 98 L168 100 Z" fill="#d8dad4"/>
    <path d="M214 96 L226 86 L240 90 L234 106 L220 108 Z" fill="#626560"/>
    <path d="M20 156 L34 144 L48 152 L40 168 L24 170 Z" fill="#d1d3cc"/>
    <path d="M86 148 L100 138 L112 146 L106 162 L92 164 Z" fill="#5d605c"/>
    <path d="M146 162 L160 150 L174 158 L166 174 L152 176 Z" fill="#b1b4ad"/>
    <path d="M212 154 L226 142 L238 150 L232 166 L218 168 Z" fill="#676a65"/>
    <path d="M40 220 L52 210 L66 216 L60 230 L46 232 Z" fill="#b9bcb6"/>
    <path d="M108 214 L124 202 L136 212 L130 226 L114 228 Z" fill="#d4d7d0"/>
    <path d="M176 222 L188 212 L202 218 L196 234 L182 236 Z" fill="#5f625e"/>
  </g>
  <g stroke="#666963" stroke-width="1" opacity="0.35">
    <path d="M0 64 H256"/>
    <path d="M0 128 H256"/>
    <path d="M0 192 H256"/>
    <path d="M64 0 V256"/>
    <path d="M128 0 V256"/>
    <path d="M192 0 V256"/>
  </g>
</svg>
