<svg xmlns="http://www.w3.org/2000/svg" width="512" height="512" viewBox="0 0 512 512">
  <defs>
    <linearGradient id="base" x1="0" y1="0" x2="0" y2="1">
      <stop offset="0%" stop-color="#bdb5aa"/>
      <stop offset="100%" stop-color="#aaa398"/>
    </linearGradient>
    <radialGradient id="gloss" cx="84%" cy="20%" r="42%">
      <stop offset="0%" stop-color="#ffffff" stop-opacity="0.22"/>
      <stop offset="45%" stop-color="#f8fafb" stop-opacity="0.12"/>
      <stop offset="100%" stop-color="#ffffff" stop-opacity="0"/>
    </radialGradient>
    <linearGradient id="shade" x1="0" y1="0" x2="0" y2="1">
      <stop offset="0%" stop-color="#554f48" stop-opacity="0.18"/>
      <stop offset="100%" stop-color="#554f48" stop-opacity="0"/>
    </linearGradient>
    <pattern id="fineSpeckle" width="64" height="64" patternUnits="userSpaceOnUse">
      <rect width="64" height="64" fill="none"/>
      <g fill="#5e5952" opacity="0.42">
        <circle cx="7" cy="8" r="1.2"/>
        <ellipse cx="18" cy="10" rx="1.4" ry="1"/>
        <circle cx="31" cy="6" r="1.1"/>
        <ellipse cx="43" cy="14" rx="1.7" ry="1.1"/>
        <circle cx="58" cy="9" r="1.3"/>
        <ellipse cx="10" cy="24" rx="1.5" ry="1.1"/>
        <circle cx="22" cy="20" r="1.2"/>
        <ellipse cx="35" cy="27" rx="1.8" ry="1.2"/>
        <circle cx="49" cy="22" r="1.1"/>
        <ellipse cx="60" cy="29" rx="1.6" ry="1"/>
        <circle cx="5" cy="39" r="1.2"/>
        <ellipse cx="16" cy="43" rx="1.7" ry="1.1"/>
        <circle cx="29" cy="36" r="1.3"/>
        <ellipse cx="40" cy="46" rx="1.5" ry="1"/>
        <circle cx="54" cy="39" r="1.2"/>
        <ellipse cx="11" cy="57" rx="1.7" ry="1.2"/>
        <circle cx="26" cy="54" r="1.1"/>
        <ellipse cx="36" cy="60" rx="1.5" ry="1"/>
        <circle cx="50" cy="55" r="1.3"/>
        <circle cx="61" cy="50" r="1.1"/>
      </g>
      <g fill="#726c63" opacity="0.24">
        <circle cx="13" cy="4" r="0.8"/>
        <circle cx="27" cy="17" r="0.7"/>
        <circle cx="51" cy="18" r="0.9"/>
        <circle cx="38" cy="34" r="0.8"/>
        <circle cx="6" cy="52" r="0.7"/>
        <circle cx="44" cy="53" r="0.8"/>
      </g>
    </pattern>
    <pattern id="coarseSpeckle" width="96" height="96" patternUnits="userSpaceOnUse">
      <rect width="96" height="96" fill="none"/>
      <g fill="#4f4943" opacity="0.26">
        <ellipse cx="15" cy="18" rx="3.6" ry="2.1"/>
        <ellipse cx="54" cy="14" rx="2.8" ry="1.8"/>
        <ellipse cx="80" cy="28" rx="3.2" ry="1.9"/>
        <ellipse cx="30" cy="45" rx="3.9" ry="2.2"/>
        <ellipse cx="67" cy="54" rx="3.1" ry="1.9"/>
        <ellipse cx="13" cy="74" rx="3" ry="1.8"/>
        <ellipse cx="48" cy="83" rx="3.7" ry="2.1"/>
        <ellipse cx="85" cy="72" rx="2.9" ry="1.7"/>
      </g>
      <g fill="#eee8dc" opacity="0.1">
        <ellipse cx="36" cy="12" rx="2.2" ry="1.3"/>
        <ellipse cx="70" cy="38" rx="2.4" ry="1.4"/>
        <ellipse cx="24" cy="69" rx="2.1" ry="1.2"/>
        <ellipse cx="76" cy="86" rx="2.3" ry="1.2"/>
      </g>
    </pattern>
  </defs>

  <rect width="512" height="512" fill="url(#base)"/>
  <rect width="512" height="512" fill="url(#fineSpeckle)"/>
  <rect width="512" height="512" fill="url(#coarseSpeckle)"/>
  <rect width="512" height="512" fill="url(#gloss)"/>
  <rect width="512" height="140" fill="url(#shade)"/>

  <g opacity="0.1">
    <path d="M0 70 C110 86, 214 63, 312 73 S450 93, 512 82 V111 H0 Z" fill="#6a645c"/>
    <path d="M0 368 C96 381, 201 356, 287 366 S429 384, 512 372 V391 H0 Z" fill="#736c64"/>
  </g>

  <g stroke="#f7f7f4" stroke-width="2.6" stroke-linecap="round" opacity="0.08">
    <path d="M320 60 l88 -10"/>
    <path d="M374 84 l62 -7"/>
    <path d="M288 222 l78 -9"/>
  </g>
</svg>
