<svg xmlns="http://www.w3.org/2000/svg" width="256" height="256" viewBox="0 0 256 256">
  <rect width="256" height="256" fill="#6e706d"/>
  <g opacity="0.18">
    <rect y="0" width="256" height="52" fill="#777976"/>
    <rect y="60" width="256" height="44" fill="#696b68"/>
    <rect y="124" width="256" height="50" fill="#747673"/>
    <rect y="186" width="256" height="54" fill="#676966"/>
  </g>
  <g fill="#8b8d89" opacity="0.26">
    <circle cx="18" cy="22" r="1.6"/>
    <circle cx="54" cy="38" r="1.4"/>
    <circle cx="102" cy="18" r="1.2"/>
    <circle cx="150" cy="34" r="1.5"/>
    <circle cx="198" cy="24" r="1.3"/>
    <circle cx="236" cy="42" r="1.4"/>
    <circle cx="32" cy="92" r="1.5"/>
    <circle cx="88" cy="74" r="1.3"/>
    <circle cx="136" cy="98" r="1.4"/>
    <circle cx="194" cy="84" r="1.2"/>
    <circle cx="226" cy="112" r="1.5"/>
    <circle cx="20" cy="154" r="1.3"/>
    <circle cx="70" cy="138" r="1.5"/>
    <circle cx="124" cy="164" r="1.2"/>
    <circle cx="176" cy="146" r="1.4"/>
    <circle cx="226" cy="170" r="1.5"/>
    <circle cx="38" cy="220" r="1.4"/>
    <circle cx="92" cy="206" r="1.2"/>
    <circle cx="146" cy="232" r="1.5"/>
    <circle cx="206" cy="214" r="1.3"/>
  </g>
  <g stroke="#555754" stroke-width="1" opacity="0.32">
    <path d="M0 64 H256"/>
    <path d="M0 128 H256"/>
    <path d="M0 192 H256"/>
  </g>
</svg>
