<svg xmlns="http://www.w3.org/2000/svg" width="256" height="256" viewBox="0 0 256 256">
  <rect width="256" height="256" fill="#c9c4ba"/>
  <g opacity="0.18">
    <rect y="0" width="256" height="56" fill="#d1cbc0"/>
    <rect y="56" width="256" height="44" fill="#c4beb3"/>
    <rect y="100" width="256" height="60" fill="#d0cabf"/>
    <rect y="160" width="256" height="44" fill="#c2bcae"/>
    <rect y="204" width="256" height="52" fill="#cfcabf"/>
  </g>
  <g fill="#8d887d" opacity="0.24">
    <circle cx="14" cy="20" r="1.4"/>
    <circle cx="38" cy="34" r="1.1"/>
    <circle cx="64" cy="14" r="1.2"/>
    <circle cx="92" cy="28" r="1.4"/>
    <circle cx="118" cy="10" r="1.1"/>
    <circle cx="146" cy="22" r="1.3"/>
    <circle cx="176" cy="12" r="1.1"/>
    <circle cx="204" cy="30" r="1.4"/>
    <circle cx="232" cy="16" r="1.2"/>
    <circle cx="24" cy="70" r="1.2"/>
    <circle cx="56" cy="86" r="1.4"/>
    <circle cx="88" cy="64" r="1.1"/>
    <circle cx="126" cy="78" r="1.3"/>
    <circle cx="154" cy="58" r="1.1"/>
    <circle cx="188" cy="86" r="1.4"/>
    <circle cx="220" cy="70" r="1.2"/>
    <circle cx="12" cy="126" r="1.3"/>
    <circle cx="42" cy="112" r="1.1"/>
    <circle cx="74" cy="136" r="1.4"/>
    <circle cx="104" cy="118" r="1.2"/>
    <circle cx="138" cy="142" r="1.1"/>
    <circle cx="168" cy="124" r="1.3"/>
    <circle cx="198" cy="138" r="1.2"/>
    <circle cx="234" cy="116" r="1.4"/>
    <circle cx="28" cy="178" r="1.1"/>
    <circle cx="60" cy="194" r="1.3"/>
    <circle cx="96" cy="172" r="1.2"/>
    <circle cx="126" cy="188" r="1.4"/>
    <circle cx="162" cy="170" r="1.1"/>
    <circle cx="194" cy="196" r="1.2"/>
    <circle cx="226" cy="182" r="1.4"/>
    <circle cx="18" cy="226" r="1.3"/>
    <circle cx="52" cy="212" r="1.1"/>
    <circle cx="86" cy="236" r="1.2"/>
    <circle cx="120" cy="218" r="1.3"/>
    <circle cx="156" cy="240" r="1.1"/>
    <circle cx="192" cy="220" r="1.4"/>
    <circle cx="228" cy="234" r="1.2"/>
  </g>
  <g fill="#6f6b63" opacity="0.16">
    <path d="M30 22 L38 16 L48 22 L44 32 L34 30 Z"/>
    <path d="M164 36 L172 28 L184 34 L178 44 L168 42 Z"/>
    <path d="M88 92 L96 84 L108 90 L102 100 L92 98 Z"/>
    <path d="M204 124 L214 116 L224 120 L220 132 L208 132 Z"/>
    <path d="M44 168 L54 160 L64 166 L60 178 L48 176 Z"/>
    <path d="M138 196 L148 188 L160 194 L154 206 L142 204 Z"/>
    <path d="M210 226 L220 218 L230 222 L226 234 L214 234 Z"/>
  </g>
  <g stroke="#ece6dd" stroke-width="1" opacity="0.14">
    <path d="M0 46 C 32 52, 64 36, 96 44 S 160 54, 192 42 S 224 34, 256 46"/>
    <path d="M0 146 C 36 154, 70 134, 110 144 S 176 156, 214 144 S 236 138, 256 148"/>
  </g>
</svg>
