<svg xmlns="http://www.w3.org/2000/svg" width="256" height="256" viewBox="0 0 256 256">
  <rect width="256" height="256" fill="#2d2d2c"/>
  <g fill="#3b3b39" opacity="0.95">
    <rect x="0" y="0" width="64" height="64"/>
    <rect x="66" y="0" width="64" height="64"/>
    <rect x="132" y="0" width="64" height="64"/>
    <rect x="198" y="0" width="58" height="64"/>
    <rect x="0" y="66" width="64" height="64"/>
    <rect x="66" y="66" width="64" height="64"/>
    <rect x="132" y="66" width="64" height="64"/>
    <rect x="198" y="66" width="58" height="64"/>
    <rect x="0" y="132" width="64" height="64"/>
    <rect x="66" y="132" width="64" height="64"/>
    <rect x="132" y="132" width="64" height="64"/>
    <rect x="198" y="132" width="58" height="64"/>
    <rect x="0" y="198" width="64" height="58"/>
    <rect x="66" y="198" width="64" height="58"/>
    <rect x="132" y="198" width="64" height="58"/>
    <rect x="198" y="198" width="58" height="58"/>
  </g>
  <g stroke="#555552" stroke-width="2" opacity="0.4">
    <path d="M64 0 V256"/>
    <path d="M130 0 V256"/>
    <path d="M196 0 V256"/>
    <path d="M0 64 H256"/>
    <path d="M0 130 H256"/>
    <path d="M0 196 H256"/>
  </g>
  <g fill="#4a4a47" opacity="0.45">
    <circle cx="16" cy="16" r="1.4"/>
    <circle cx="48" cy="24" r="1.1"/>
    <circle cx="94" cy="18" r="1.2"/>
    <circle cx="148" cy="26" r="1.1"/>
    <circle cx="214" cy="20" r="1.3"/>
    <circle cx="30" cy="98" r="1.2"/>
    <circle cx="110" cy="84" r="1.1"/>
    <circle cx="180" cy="106" r="1.2"/>
    <circle cx="230" cy="92" r="1.3"/>
    <circle cx="26" cy="168" r="1.1"/>
    <circle cx="84" cy="150" r="1.2"/>
    <circle cx="160" cy="174" r="1.1"/>
    <circle cx="218" cy="156" r="1.2"/>
    <circle cx="42" cy="226" r="1.1"/>
    <circle cx="104" cy="214" r="1.2"/>
    <circle cx="170" cy="232" r="1.1"/>
  </g>
</svg>
